<svg width="60" height="60" xmlns="http://www.w3.org/2000/svg" xmlns:svg="http://www.w3.org/2000/svg">
 <!-- Created with SVG-edit - http://svg-edit.googlecode.com/ -->
 <title>Settings</title>
 <g>
  <path transform="translate(2,2.2395833333333144) scale(0.005) translate(-2,-2.2395833333333144)" id="svg_1" d="m58.70221,16.3219l5.07412,-2.68329c-0.09973,-0.99461 -0.29245,-1.95957 -0.53369,-2.90701l-5.63612,-0.78032c-0.48787,-1.1752 -1.13208,-2.2655 -1.88949,-3.2655l2.14825,-5.28437c-0.7062,-0.68868 -1.469,-1.31671 -2.27224,-1.89488l-4.78571,3.00404c-1.12264,-0.5903 -2.33154,-1.03774 -3.60108,-1.32615l-1.72911,-5.35849c-0.49057,-0.03639 -0.98113,-0.07547 -1.48113,-0.07547s-0.98922,0.03774 -1.48113,0.07547l-1.71294,5.31132c-1.30323,0.27898 -2.53908,0.73181 -3.69003,1.32884l-4.71159,-2.95957c-0.80189,0.57817 -1.56469,1.2062 -2.27089,1.89488l2.08895,5.13747c-0.81402,1.04447 -1.49596,2.19542 -2.00809,3.43666l-5.45822,0.75472c-0.23989,0.94744 -0.43396,1.91105 -0.53234,2.90701l4.89892,2.59164c0.05526,1.36523 0.28167,2.68733 0.68194,3.93261l-3.69542,4.08625c0.42992,0.89084 0.90836,1.75606 1.46226,2.56739l5.4407,-1.16846c0.89218,0.97035 1.90836,1.82075 3.02965,2.52426l-0.2062,5.56739c0.89353,0.40296 1.8221,0.73989 2.77898,1.00943l3.44205,-4.42453c0.61051,0.07817 1.22911,0.13073 1.85984,0.13073c0.68329,0 1.35175,-0.06199 2.00943,-0.15229l3.45957,4.44879c0.95822,-0.26954 1.88544,-0.60647 2.77898,-1.00943l-0.21024,-5.66712c1.06873,-0.69137 2.03774,-1.51887 2.89218,-2.45418l5.58221,1.19811c0.55391,-0.81132 1.03234,-1.6752 1.46226,-2.56739l-3.81536,-4.21968c0.36658,-1.17925 0.57143,-2.42453 0.63073,-3.70889zm-8.43261,6.44609l-2.40566,1.56604l-1.47978,-2.27358c-0.76954,0.2965 -1.59838,0.47574 -2.4717,0.47574c-3.81536,0 -6.90701,-3.09299 -6.90701,-6.90701c0,-3.81536 3.09164,-6.90701 6.90701,-6.90701c3.81402,0 6.90701,3.09164 6.90701,6.90701c0,1.90566 -0.77224,3.62938 -2.02022,4.88005l1.47035,2.25876z" stroke-linecap="null" stroke-linejoin="null" stroke-dasharray="null" stroke-width="null" stroke="#336" fill="#447"/>
  <path id="svg_2" d="m51.01714,31.26099l7.15582,-3.78412c-0.14065,-1.40265 -0.41243,-2.76349 -0.75264,-4.09963l-7.94837,-1.10046c-0.68802,-1.65734 -1.59652,-3.19493 -2.66466,-4.60519l3.02958,-7.45231c-0.99592,-0.97121 -2.07167,-1.8569 -3.20444,-2.67226l-6.74908,4.23647c-1.58321,-0.83247 -3.28806,-1.46347 -5.07844,-1.87021l-2.43849,-7.55685c-0.69182,-0.05132 -1.38365,-0.10643 -2.08878,-0.10643s-1.39505,0.05322 -2.08878,0.10643l-2.41568,7.49032c-1.83789,0.39343 -3.58076,1.03203 -5.20388,1.87401l-6.64455,-4.17375c-1.13087,0.81536 -2.20661,1.70105 -3.20254,2.67226l2.94595,7.24514c-1.14797,1.47298 -2.10968,3.0961 -2.83192,4.84657l-7.69749,1.06434c-0.33831,1.33613 -0.612,2.69507 -0.75074,4.09963l6.90874,3.65488c0.07793,1.92532 0.39723,3.78983 0.96171,5.546l-5.21149,5.76267c0.6063,1.25631 1.28101,2.4765 2.06217,3.62067l7.67278,-1.64783c1.25821,1.36844 2.69127,2.56773 4.27258,3.55985l-0.29079,7.85144c1.26011,0.56828 2.56963,1.04344 3.91907,1.42356l4.85417,-6.23972c0.86098,0.11024 1.73336,0.18436 2.62285,0.18436c0.96361,0 1.90632,-0.08743 2.83382,-0.21477l4.87888,6.27393c1.35134,-0.38012 2.65896,-0.85528 3.91907,-1.42356l-0.2965,-7.99209c1.50719,-0.97502 2.87373,-2.14199 4.07872,-3.46102l7.87235,1.68965c0.78115,-1.14417 1.45587,-2.36246 2.06217,-3.62067l-5.38064,-5.95083c0.51697,-1.66304 0.80586,-3.41921 0.88949,-5.23049zm-11.89215,9.09064l-3.3926,2.20851l-2.08688,-3.20634c-1.08525,0.41814 -2.25413,0.67092 -3.48573,0.67092c-5.38064,0 -9.74065,-4.36191 -9.74065,-9.74065c0,-5.38064 4.36001,-9.74065 9.74065,-9.74065c5.37874,0 9.74065,4.36001 9.74065,9.74065c0,2.68747 -1.08905,5.11836 -2.84902,6.88213l2.07357,3.18543z" stroke-linecap="null" stroke-linejoin="null" stroke-dasharray="null" stroke-width="null" stroke="#336" fill="#336"/>
 </g>
</svg>